<svg xmlns="http://www.w3.org/2000/svg" version="1.1" xmlns:xlink="http://www.w3.org/1999/xlink" xmlns:svgjs="http://svgjs.dev/svgjs" width="1920" height="1080" preserveAspectRatio="none" viewBox="0 0 1920 1080"><g mask="url(&quot;#SvgjsMask12032&quot;)" fill="none"><rect width="1920" height="1080" x="0" y="0" fill="rgba(9, 9, 11, 1)"></rect><rect width="574.08" height="574.08" clip-path="url(&quot;#SvgjsClipPath12033&quot;)" x="1310.01" y="489.78" fill="url(&quot;#SvgjsPattern12034&quot;)" transform="rotate(232.57, 1597.05, 776.82)"></rect><rect width="60" height="60" clip-path="url(&quot;#SvgjsClipPath12035&quot;)" x="-13.57" y="243.44" fill="url(&quot;#SvgjsPattern12036&quot;)" transform="rotate(59.87, 16.43, 273.44)"></rect><circle r="90" cx="66.3" cy="656.33" stroke="rgba(21, 95, 195, 1)" stroke-width="1.22" stroke-dasharray="4, 4"></circle><rect width="444" height="444" clip-path="url(&quot;#SvgjsClipPath12037&quot;)" x="11.69" y="270.26" fill="url(&quot;#SvgjsPattern12038&quot;)" transform="rotate(236.35, 233.69, 492.26)"></rect><rect width="180" height="180" clip-path="url(&quot;#SvgjsClipPath12039&quot;)" x="1202.2" y="58.73" fill="url(&quot;#SvgjsPattern12040&quot;)" transform="rotate(241.85, 1292.2, 148.73)"></rect><path d="M1505.4399999999998 522.66 L1563.9099999999999 389.19L1435.5925566285448 356.842556628545z" stroke="rgba(22, 217, 219, 1)" stroke-width="1.12" stroke-dasharray="3, 3"></path><path d="M1860.53 37.34L1851.22 46.13 1840.6 38.98 1831.28 47.77 1820.66 40.61 1811.35 49.4 1800.73 42.24" stroke="rgba(21, 95, 195, 1)" stroke-width="1.61" stroke-dasharray="2, 2"></path><path d="M897.35 432.02L903.28 420.66 915.66 423.96 921.59 412.61 933.96 415.9 939.89 404.55 952.27 407.84M900.57 439.34L906.5 427.99 918.88 431.28 924.81 419.93 937.18 423.22 943.11 411.87 955.49 415.16" stroke="rgba(21, 95, 195, 1)" stroke-width="1.65" stroke-dasharray="2, 2"></path></g><defs><mask id="SvgjsMask12032"><rect width="1920" height="1080" fill="#ffffff"></rect></mask><pattern x="0" y="0" width="574.08" height="7.36" patternUnits="userSpaceOnUse" id="SvgjsPattern12034"><rect width="574.08" height="3.68" x="0" y="0" fill="rgba(22, 217, 219, 1)"></rect><rect width="574.08" height="3.68" x="0" y="3.68" fill="rgba(0, 0, 0, 0)"></rect></pattern><clipPath id="SvgjsClipPath12033"><circle r="143.52" cx="1597.05" cy="776.82"></circle></clipPath><pattern x="0" y="0" width="6" height="6" patternUnits="userSpaceOnUse" id="SvgjsPattern12036"><path d="M3 1L3 5M1 3L5 3" stroke="rgba(21, 95, 195, 1)" fill="none" stroke-width="1"></path></pattern><clipPath id="SvgjsClipPath12035"><circle r="15" cx="16.43" cy="273.44"></circle></clipPath><pattern x="0" y="0" width="444" height="6" patternUnits="userSpaceOnUse" id="SvgjsPattern12038"><rect width="444" height="3" x="0" y="0" fill="rgba(21, 95, 195, 1)"></rect><rect width="444" height="3" x="0" y="3" fill="rgba(0, 0, 0, 0)"></rect></pattern><clipPath id="SvgjsClipPath12037"><circle r="111" cx="233.69" cy="492.26"></circle></clipPath><pattern x="0" y="0" width="180" height="6" patternUnits="userSpaceOnUse" id="SvgjsPattern12040"><rect width="180" height="3" x="0" y="0" fill="rgba(21, 95, 195, 1)"></rect><rect width="180" height="3" x="0" y="3" fill="rgba(0, 0, 0, 0)"></rect></pattern><clipPath id="SvgjsClipPath12039"><circle r="45" cx="1292.2" cy="148.73"></circle></clipPath></defs></svg>