<svg xmlns="http://www.w3.org/2000/svg" version="1.1" xmlns:xlink="http://www.w3.org/1999/xlink" xmlns:svgjs="http://svgjs.dev/svgjs" width="1920" height="1080" preserveAspectRatio="none" viewBox="0 0 1920 1080"><g mask="url(&quot;#SvgjsMask1126&quot;)" fill="none"><path d="M1143 668L1142 1201" stroke-width="8" stroke="url(&quot;#SvgjsLinearGradient1127&quot;)" stroke-linecap="round" class="Down"></path><path d="M974 195L973 -459" stroke-width="10" stroke="url(&quot;#SvgjsLinearGradient1127&quot;)" stroke-linecap="round" class="Down"></path><path d="M320 109L319 405" stroke-width="8" stroke="url(&quot;#SvgjsLinearGradient1128&quot;)" stroke-linecap="round" class="Up"></path><path d="M1117 253L1116 -126" stroke-width="10" stroke="url(&quot;#SvgjsLinearGradient1128&quot;)" stroke-linecap="round" class="Up"></path><path d="M862 744L861 289" stroke-width="10" stroke="url(&quot;#SvgjsLinearGradient1127&quot;)" stroke-linecap="round" class="Down"></path><path d="M1448 201L1447 991" stroke-width="10" stroke="url(&quot;#SvgjsLinearGradient1129&quot;)" stroke-linecap="round" class="Down"></path><path d="M1879 843L1878 378" stroke-width="8" stroke="url(&quot;#SvgjsLinearGradient1129&quot;)" stroke-linecap="round" class="Down"></path><path d="M966 606L965 306" stroke-width="8" stroke="url(&quot;#SvgjsLinearGradient1130&quot;)" stroke-linecap="round" class="Up"></path><path d="M287 699L286 1171" stroke-width="8" stroke="url(&quot;#SvgjsLinearGradient1130&quot;)" stroke-linecap="round" class="Up"></path><path d="M779 295L778 -396" stroke-width="6" stroke="url(&quot;#SvgjsLinearGradient1130&quot;)" stroke-linecap="round" class="Up"></path><path d="M588 583L587 992" stroke-width="8" stroke="url(&quot;#SvgjsLinearGradient1128&quot;)" stroke-linecap="round" class="Up"></path><path d="M531 932L530 1357" stroke-width="6" stroke="url(&quot;#SvgjsLinearGradient1130&quot;)" stroke-linecap="round" class="Up"></path><path d="M538 908L537 626" stroke-width="10" stroke="url(&quot;#SvgjsLinearGradient1130&quot;)" stroke-linecap="round" class="Up"></path><path d="M162 878L161 1408" stroke-width="6" stroke="url(&quot;#SvgjsLinearGradient1128&quot;)" stroke-linecap="round" class="Up"></path><path d="M365 877L364 1484" stroke-width="10" stroke="url(&quot;#SvgjsLinearGradient1130&quot;)" stroke-linecap="round" class="Up"></path><path d="M888 522L887 96" stroke-width="8" stroke="url(&quot;#SvgjsLinearGradient1129&quot;)" stroke-linecap="round" class="Down"></path><path d="M533 767L532 -29" stroke-width="6" stroke="url(&quot;#SvgjsLinearGradient1130&quot;)" stroke-linecap="round" class="Up"></path><path d="M901 290L900 916" stroke-width="6" stroke="url(&quot;#SvgjsLinearGradient1129&quot;)" stroke-linecap="round" class="Down"></path><path d="M853 29L852 -631" stroke-width="8" stroke="url(&quot;#SvgjsLinearGradient1129&quot;)" stroke-linecap="round" class="Down"></path><path d="M1520 211L1519 -354" stroke-width="8" stroke="url(&quot;#SvgjsLinearGradient1130&quot;)" stroke-linecap="round" class="Up"></path><path d="M694 169L693 -500" stroke-width="10" stroke="url(&quot;#SvgjsLinearGradient1130&quot;)" stroke-linecap="round" class="Up"></path><path d="M1321 444L1320 835" stroke-width="6" stroke="url(&quot;#SvgjsLinearGradient1130&quot;)" stroke-linecap="round" class="Up"></path><path d="M1032 978L1031 210" stroke-width="6" stroke="url(&quot;#SvgjsLinearGradient1130&quot;)" stroke-linecap="round" class="Up"></path><path d="M525 677L524 129" stroke-width="8" stroke="url(&quot;#SvgjsLinearGradient1128&quot;)" stroke-linecap="round" class="Up"></path><path d="M312 930L311 486" stroke-width="8" stroke="url(&quot;#SvgjsLinearGradient1127&quot;)" stroke-linecap="round" class="Down"></path><path d="M446 728L445 49" stroke-width="8" stroke="url(&quot;#SvgjsLinearGradient1127&quot;)" stroke-linecap="round" class="Down"></path><path d="M1733 750L1732 112" stroke-width="8" stroke="url(&quot;#SvgjsLinearGradient1128&quot;)" stroke-linecap="round" class="Up"></path><path d="M429 72L428 -295" stroke-width="6" stroke="url(&quot;#SvgjsLinearGradient1129&quot;)" stroke-linecap="round" class="Down"></path><path d="M1325 745L1324 1386" stroke-width="6" stroke="url(&quot;#SvgjsLinearGradient1128&quot;)" stroke-linecap="round" class="Up"></path><path d="M897 554L896 137" stroke-width="10" stroke="url(&quot;#SvgjsLinearGradient1129&quot;)" stroke-linecap="round" class="Down"></path><path d="M1386 427L1385 931" stroke-width="8" stroke="url(&quot;#SvgjsLinearGradient1128&quot;)" stroke-linecap="round" class="Up"></path><path d="M663 377L662 1109" stroke-width="10" stroke="url(&quot;#SvgjsLinearGradient1129&quot;)" stroke-linecap="round" class="Down"></path><path d="M1417 358L1416 947" stroke-width="6" stroke="url(&quot;#SvgjsLinearGradient1128&quot;)" stroke-linecap="round" class="Up"></path><path d="M598 249L597 566" stroke-width="10" stroke="url(&quot;#SvgjsLinearGradient1127&quot;)" stroke-linecap="round" class="Down"></path><path d="M642 998L641 290" stroke-width="8" stroke="url(&quot;#SvgjsLinearGradient1130&quot;)" stroke-linecap="round" class="Up"></path><path d="M926 448L925 813" stroke-width="8" stroke="url(&quot;#SvgjsLinearGradient1129&quot;)" stroke-linecap="round" class="Down"></path><path d="M1879 1066L1878 1775" stroke-width="6" stroke="url(&quot;#SvgjsLinearGradient1129&quot;)" stroke-linecap="round" class="Down"></path><path d="M33 352L32 -237" stroke-width="8" stroke="url(&quot;#SvgjsLinearGradient1129&quot;)" stroke-linecap="round" class="Down"></path><path d="M474 315L473 -382" stroke-width="6" stroke="url(&quot;#SvgjsLinearGradient1127&quot;)" stroke-linecap="round" class="Down"></path><path d="M1074 233L1073 -331" stroke-width="6" stroke="url(&quot;#SvgjsLinearGradient1129&quot;)" stroke-linecap="round" class="Down"></path><path d="M444 442L443 -306" stroke-width="6" stroke="url(&quot;#SvgjsLinearGradient1128&quot;)" stroke-linecap="round" class="Up"></path><path d="M1437 695L1436 121" stroke-width="10" stroke="url(&quot;#SvgjsLinearGradient1129&quot;)" stroke-linecap="round" class="Down"></path><path d="M236 790L235 380" stroke-width="6" stroke="url(&quot;#SvgjsLinearGradient1127&quot;)" stroke-linecap="round" class="Down"></path><path d="M834 66L833 -309" stroke-width="8" stroke="url(&quot;#SvgjsLinearGradient1128&quot;)" stroke-linecap="round" class="Up"></path><path d="M936 79L935 -674" stroke-width="6" stroke="url(&quot;#SvgjsLinearGradient1129&quot;)" stroke-linecap="round" class="Down"></path><path d="M1576 294L1575 -278" stroke-width="10" stroke="url(&quot;#SvgjsLinearGradient1130&quot;)" stroke-linecap="round" class="Up"></path><path d="M511 917L510 117" stroke-width="8" stroke="url(&quot;#SvgjsLinearGradient1130&quot;)" stroke-linecap="round" class="Up"></path><path d="M1117 125L1116 849" stroke-width="6" stroke="url(&quot;#SvgjsLinearGradient1128&quot;)" stroke-linecap="round" class="Up"></path></g><defs><mask id="SvgjsMask1126"><rect width="1920" height="1080" fill="#ffffff"></rect></mask><linearGradient x1="0%" y1="0%" x2="0%" y2="100%" id="SvgjsLinearGradient1127"><stop stop-color="rgba(30, 58, 138, 0)" offset="0"></stop><stop stop-color="rgba(30, 58, 138, 0.46)" offset="1"></stop></linearGradient><linearGradient x1="0%" y1="100%" x2="0%" y2="0%" id="SvgjsLinearGradient1128"><stop stop-color="rgba(30, 58, 138, 0)" offset="0"></stop><stop stop-color="rgba(30, 58, 138, 0.46)" offset="1"></stop></linearGradient><linearGradient x1="0%" y1="0%" x2="0%" y2="100%" id="SvgjsLinearGradient1129"><stop stop-color="rgba(24, 24, 27, 0)" offset="0"></stop><stop stop-color="rgba(24, 24, 27, 0.77)" offset="1"></stop></linearGradient><linearGradient x1="0%" y1="100%" x2="0%" y2="0%" id="SvgjsLinearGradient1130"><stop stop-color="rgba(24, 24, 27, 0)" offset="0"></stop><stop stop-color="rgba(24, 24, 27, 0.77)" offset="1"></stop></linearGradient></defs></svg>